<svg xmlns="http://www.w3.org/2000/svg" viewBox="0 0 800 242" width="800" height="242" role="img" aria-label="Count by key range benchmark">
  <rect x="0.5" y="0.5" width="799" height="241" rx="8" fill="#1a1a19" stroke="#33322f"/>
  <g font-family="ui-sans-serif, -apple-system, 'Segoe UI', Helvetica, Arial, sans-serif">
    <text x="24" y="30" font-size="15" font-weight="600" fill="#ffffff">Count by key range</text>
    <text x="24" y="48" font-size="11.5" fill="#c3c2b7">Count 8,000 rows in a key range — time per query (lower is better)</text>
    <line x1="262" y1="58" x2="262" y2="203" stroke="#3a3936" stroke-width="1"/>
  <text x="250" y="75" text-anchor="end" dominant-baseline="central" font-size="12" fill="#c3c2b7">DryDB</text>
  <path d="M262 64 h3.28 a3.28382 3.28382 0 0 1 3.28382 3.28382 v15.4324 a3.28382 3.28382 0 0 1 -3.28382 3.28382 h-3.28 Z" fill="#3987e5"/>
  <text x="276.568" y="75" dominant-baseline="central" font-size="12" font-weight="600" fill="#ffffff">1.0 µs</text>
  <text x="250" y="112" text-anchor="end" dominant-baseline="central" font-size="12" fill="#c3c2b7">SQLite (CsSqlite, prepared + immutable)</text>
  <path d="M262 101 h334.95 a4 4 0 0 1 4 4 v14 a4 4 0 0 1 -4 4 h-334.95 Z" fill="#8d8c82"/>
  <text x="608.949" y="112" dominant-baseline="central" font-size="12" font-weight="600" fill="#ffffff">102 µs</text>
  <text x="250" y="149" text-anchor="end" dominant-baseline="central" font-size="12" fill="#c3c2b7">SQLite (CsSqlite, default)</text>
  <path d="M262 138 h361.22 a4 4 0 0 1 4 4 v14 a4 4 0 0 1 -4 4 h-361.22 Z" fill="#8d8c82"/>
  <text x="635.22" y="149" dominant-baseline="central" font-size="12" font-weight="600" fill="#ffffff">110 µs</text>
  <text x="250" y="186" text-anchor="end" dominant-baseline="central" font-size="12" fill="#c3c2b7">RocksDB</text>
  <path d="M262 175 h416.00 a4 4 0 0 1 4 4 v14 a4 4 0 0 1 -4 4 h-416.00 Z" fill="#8d8c82"/>
  <path d="M606.4 173 l-6 26 h7 l6 -26 Z" fill="#1a1a19"/>
  <text x="690" y="186" dominant-baseline="central" font-size="12" font-weight="600" fill="#ffffff">713 µs</text>
    <text x="24" y="230" font-size="10.5" fill="#8a897f">BenchmarkDotNet · .NET 10 · Apple M-series · 10,000 rows (int64 key, 13-byte value) · 4 KB pages</text>
  </g>
</svg>
