<svg xmlns="http://www.w3.org/2000/svg" viewBox="0 0 800 242" width="800" height="242" role="img" aria-label="Range scan benchmark">
  <rect x="0.5" y="0.5" width="799" height="241" rx="8" fill="#fcfcfb" stroke="#e6e5e0"/>
  <g font-family="ui-sans-serif, -apple-system, 'Segoe UI', Helvetica, Arial, sans-serif">
    <text x="24" y="30" font-size="15" font-weight="600" fill="#0b0b0b">Range scan</text>
    <text x="24" y="48" font-size="11.5" fill="#52514e">Read 100 consecutive rows by key range — time per query (lower is better)</text>
    <line x1="262" y1="58" x2="262" y2="203" stroke="#d8d7d2" stroke-width="1"/>
  <text x="250" y="75" text-anchor="end" dominant-baseline="central" font-size="12" fill="#52514e">DryDB</text>
  <path d="M262 64 h25.39 a4 4 0 0 1 4 4 v14 a4 4 0 0 1 -4 4 h-25.39 Z" fill="#2a78d6"/>
  <text x="299.38530734632684" y="75" dominant-baseline="central" font-size="12" font-weight="600" fill="#0b0b0b">1.4 µs</text>
  <text x="250" y="112" text-anchor="end" dominant-baseline="central" font-size="12" fill="#52514e">SQLite (CsSqlite, prepared + immutable)</text>
  <path d="M262 101 h197.50 a4 4 0 0 1 4 4 v14 a4 4 0 0 1 -4 4 h-197.5 Z" fill="#7c7b74"/>
  <text x="471.4992503748126" y="112" dominant-baseline="central" font-size="12" font-weight="600" fill="#0b0b0b">9.6 µs</text>
  <text x="250" y="149" text-anchor="end" dominant-baseline="central" font-size="12" fill="#52514e">RocksDB</text>
  <path d="M262 138 h289.85 a4 4 0 0 1 4 4 v14 a4 4 0 0 1 -4 4 h-289.85 Z" fill="#7c7b74"/>
  <text x="563.8530734632684" y="149" dominant-baseline="central" font-size="12" font-weight="600" fill="#0b0b0b">14 µs</text>
  <text x="250" y="186" text-anchor="end" dominant-baseline="central" font-size="12" fill="#52514e">SQLite (CsSqlite, default)</text>
  <path d="M262 175 h361.22 a4 4 0 0 1 4 4 v14 a4 4 0 0 1 -4 4 h-361.22 Z" fill="#7c7b74"/>
  <text x="635.2173913043478" y="186" dominant-baseline="central" font-size="12" font-weight="600" fill="#0b0b0b">17.4 µs</text>
    <text x="24" y="230" font-size="10.5" fill="#8a897f">BenchmarkDotNet · .NET 10 · Apple M-series · 10,000 rows (int64 key, 13-byte value) · 4 KB pages</text>
  </g>
</svg>
